<svg width="1440" height="850" viewBox="0 0 1440 850" fill="none" xmlns="http://www.w3.org/2000/svg">
<g clip-path="url(#clip0_988_1460)">
<rect width="1440" height="850" fill="white"/>
<g filter="url(#filter0_i_988_1460)">
<path fill-rule="evenodd" clip-rule="evenodd" d="M-295.433 158.714C-225.743 85.5626 -160.753 -27.1294 -59.7266 -25.7347C42.8613 -24.3184 81.5679 126.968 176.771 165.233C277.658 205.783 434.525 109.224 497.177 198.103C562.879 291.309 411.027 418.173 433.833 529.904C454.97 633.462 609.583 678.567 616.767 784.014C623.503 882.871 536.913 965.688 468.4 1037.25C403.388 1105.16 322.013 1156.46 232.549 1185.33C148.904 1212.33 59.8972 1188.52 -27.5577 1197.31C-122.196 1206.82 -222.768 1285.24 -306.153 1239.46C-391.833 1192.42 -368.032 1053.75 -428.678 977.084C-486.879 903.513 -600.988 887.864 -648.35 806.889C-697.866 722.234 -739.337 608.175 -695.868 520.275C-649.117 425.736 -505.787 430.993 -427.512 360.317C-367.128 305.796 -351.55 217.618 -295.433 158.714Z" fill="#F3F7FC"/>
</g>
<g clip-path="url(#clip1_988_1460)">
<path d="M136.93 623.016L137.887 619.279L148.715 622.058L147.758 625.796L136.93 623.016Z" fill="#5793CE"/>
<path d="M142.516 628.394L143.473 624.657L154.301 627.434L153.345 631.172L142.516 628.394Z" fill="#5793CE"/>
<path d="M148.058 633.785L149.014 630.047L159.842 632.824L158.886 636.562L148.058 633.785Z" fill="#5793CE"/>
<path d="M153.496 639.211L154.453 635.473L165.281 638.253L164.324 641.99L153.496 639.211Z" fill="#5793CE"/>
<path d="M376.711 286.223L478.401 345.956C504.187 338.037 537.034 340.482 558.704 353.208C585.074 368.702 584.893 393.508 558.32 408.638C552.348 412.031 545.569 414.657 538.325 416.496C533.2 417.788 527.874 418.718 522.426 419.243C501.281 421.303 478.704 417.526 462.441 407.971C442.729 396.396 437.866 379.61 447.753 365.55L433.73 357.308L434.134 348.4L419.364 348.299L419.728 339.956L404.958 339.855L405.322 331.513L390.552 331.412L390.915 323.069L376.146 322.968L376.509 314.625L360.752 314.524L355.95 311.696L350.643 289.758L376.731 286.264L376.711 286.223ZM519.803 400.497C526.663 404.537 537.841 404.598 544.762 400.679C551.682 396.74 551.723 390.276 544.862 386.256C538.002 382.216 526.825 382.135 519.904 386.074C512.984 390.013 512.943 396.477 519.803 400.497Z" fill="#C4D9E8"/>
<path d="M321.085 664.051L458.224 585.108C467.465 579.775 466.295 570.443 455.642 564.282L322.537 487.338C311.884 481.177 295.743 480.511 286.522 485.844L149.382 564.787C140.141 570.12 141.311 579.452 151.965 585.613L285.069 662.557C295.723 668.718 311.864 669.384 321.085 664.051Z" fill="#C4D9E8"/>
<path d="M160.298 485.076L184.005 471.38L96.6003 420.859C92.4641 418.475 92.4641 414.597 96.6003 412.193L185.902 360.581C190.038 358.197 196.757 358.197 200.873 360.581L288.277 411.102L311.985 397.406L224.58 346.885C207.39 336.947 179.385 336.947 162.194 346.885L72.8929 398.497C55.6823 408.436 55.6823 424.616 72.8929 434.555L160.298 485.076Z" fill="#5793CE"/>
<path d="M122.043 491.116C122.043 478.43 129.75 463.684 139.253 458.189L297.619 366.641C301.876 364.177 305.77 364.015 308.777 365.692L497.871 475.703L315.011 613.651L128.721 505.398C128.136 505.135 127.591 504.832 127.067 504.448C123.96 502.085 122.023 497.459 122.023 491.116H122.043Z" fill="#D4ECFF"/>
<path d="M315.031 613.651L128.741 505.398C128.156 505.135 127.611 504.832 127.087 504.448C123.98 502.085 122.043 497.459 122.043 491.116C122.043 484.773 123.818 478.551 126.683 472.774L339.042 595.532L315.011 613.651H315.031Z" fill="#173D7A"/>
<path d="M326.936 613.167L485.301 521.618C494.805 516.124 502.512 501.378 502.512 488.692C502.512 476.006 494.805 470.168 485.301 475.663L326.936 567.211C317.433 572.705 309.725 587.452 309.725 600.137C309.725 612.823 317.433 618.661 326.936 613.167Z" fill="#5793CE"/>
<path d="M350.663 582.28L369.71 571.291C371.606 570.2 373.14 567.251 373.14 564.726C373.14 562.201 371.606 561.029 369.71 562.12L350.663 573.109C348.767 574.2 347.233 577.149 347.233 579.674C347.233 582.199 348.767 583.371 350.663 582.28Z" fill="white"/>
<path d="M493.634 259.922L461.09 278.426L427.899 258.912L427.98 250.428L428.262 250.61L428.303 250.004L413.533 249.903L413.614 241.54L399.127 241.439L399.228 233.096L384.741 232.995L384.822 224.632L370.356 224.531L370.436 216.189L354.961 216.067L350.139 213.239L344.832 191.322L344.933 182.838L347.496 190.958L370.921 187.827L493.634 259.922Z" fill="#396CAA"/>
<path d="M461.19 269.942L427.98 250.428L428.383 241.52L413.614 241.419L413.997 233.056L399.228 232.955L399.591 224.612L384.822 224.511L385.205 216.148L370.436 216.047L370.799 207.704L355.041 207.583L350.239 204.755L344.933 182.838L371.001 179.343L493.715 251.438L461.19 269.942Z" fill="#D4ECFF"/>
<path d="M439.077 256.953C442.426 252.206 447.43 247.762 454.149 243.944C458.89 241.257 464.156 239.076 469.745 237.359L493.735 251.438L461.19 269.942L439.077 256.953Z" fill="#396CAA"/>
<path d="M345.821 186.514L344.933 182.838L349.311 182.252L452.979 243.156L447.531 246.267L345.821 186.514Z" fill="#5793CE"/>
<path d="M572.282 286.688L572.646 274.628L568.792 282.769L572.282 286.688Z" fill="#D3D0CF"/>
<path d="M552.247 313.817C525.654 328.947 482.739 328.644 456.368 313.15C443.152 305.393 436.595 295.273 436.716 285.213L437.079 272.447L439.238 274.871C442.305 268.568 448.116 262.649 456.751 257.741C483.344 242.631 526.26 242.914 552.63 258.407C579.001 273.901 578.82 298.707 552.247 313.837V313.817ZM513.851 291.253C506.93 295.192 506.89 301.656 513.75 305.676C520.61 309.716 531.788 309.797 538.709 305.858C545.629 301.919 545.669 295.455 538.809 291.435C531.949 287.395 520.772 287.314 513.851 291.253Z" fill="#396CAA"/>
<path d="M552.59 301.757C525.997 316.867 483.082 316.584 456.711 301.091C430.34 285.597 430.522 260.791 457.094 245.661C483.687 230.551 526.603 230.834 552.973 246.328C579.344 261.821 579.163 286.627 552.59 301.757ZM514.194 279.194C507.273 283.133 507.233 289.597 514.093 293.617C520.953 297.657 532.131 297.738 539.052 293.798C545.972 289.859 546.012 283.395 539.152 279.375C532.292 275.335 521.115 275.255 514.194 279.194Z" fill="#F2F2F2"/>
<path d="M521.78 308.363C527.632 309.272 534.108 308.484 538.708 305.858C543.672 303.03 545.084 298.909 542.966 295.314L555.011 285.759C555.011 285.759 561.306 278.648 567.541 271.598C577.246 285.799 572.141 302.505 552.267 313.817C543.511 318.807 533.685 321.635 522.527 323.271L521.801 308.363H521.78Z" fill="#5793CE"/>
<path d="M552.59 301.757C546.618 305.151 539.838 307.777 532.595 309.615C527.47 310.908 522.144 311.837 516.696 312.363C495.551 314.423 472.973 310.646 456.711 301.091C430.34 285.597 430.522 260.791 457.094 245.661C483.687 230.551 526.603 230.834 552.973 246.328C579.344 261.821 579.163 286.627 552.59 301.757ZM514.194 279.194C507.273 283.133 507.233 289.597 514.093 293.617C520.953 297.657 532.131 297.738 539.052 293.798C545.972 289.859 546.012 283.395 539.152 279.375C532.292 275.335 521.115 275.255 514.194 279.194Z" fill="#D4ECFF"/>
<path d="M565.16 274.305C563.869 266.589 558.139 259.034 547.97 253.054C524.504 239.278 486.31 239.015 462.663 252.448C450.9 259.135 444.968 267.942 444.827 276.81C443.132 266.73 448.984 256.367 462.381 248.752C486.028 235.298 524.222 235.561 547.687 249.358C559.49 256.286 565.301 265.316 565.16 274.305Z" fill="#396CAA"/>
<path d="M581.16 383.993C585.942 383.993 590.421 382.862 594.456 380.559C603.98 375.145 609.286 364.278 609.387 349.935C609.569 323.776 591.39 291.738 568.852 278.487C556.504 271.235 544.459 270.225 534.936 275.638C530.88 277.941 527.551 281.274 525.069 285.516C521.76 291.152 520.066 298.142 520.005 306.282C519.823 332.442 538.002 364.48 560.54 377.731C567.662 381.913 574.663 384.013 581.16 384.013V383.993ZM548.272 281.82C553.054 281.82 558.421 283.476 564.01 286.769C583.904 298.465 599.965 326.766 599.803 349.875C599.723 360.642 596.151 368.58 589.735 372.216C583.319 375.873 574.683 374.883 565.402 369.429C545.488 357.733 529.448 329.432 529.609 306.323C529.649 299.98 530.941 294.465 533.362 290.364C534.976 287.597 537.115 285.436 539.697 283.981C542.24 282.527 545.145 281.82 548.292 281.82H548.272Z" fill="#396CAA"/>
<path d="M535.743 303.05L516.817 307.696L514.093 293.637C520.953 297.677 532.131 297.758 539.052 293.819L535.743 303.07V303.05Z" fill="#D4ECFF"/>
<path d="M552.59 301.757C546.618 305.151 539.839 307.777 532.595 309.615C527.47 310.908 522.144 311.837 516.696 312.363C495.551 314.423 472.973 310.646 456.711 301.091L533.786 299.354L552.59 301.757Z" fill="#D4ECFF"/>
<path d="M524.121 311.494C524.121 311.494 532.313 310.161 540.867 307.171V319.009C536.792 320.423 530.073 322.483 524.323 323.251C506.668 325.594 524.121 311.494 524.121 311.494Z" fill="#396CAA"/>
<path d="M536.409 308.605C539.939 307.575 543.773 306.242 547.304 304.585C557.614 299.758 544.58 317.655 544.58 317.655C544.58 317.655 541.069 319.049 536.409 320.483V308.605Z" fill="#5793CE"/>
<path d="M343.037 516.629L376.772 538.405L393.175 535.739L353.085 516.326L343.037 516.629Z" fill="#5793CE"/>
<path d="M383.813 626.58C383.813 626.58 393.518 621.671 399.49 628.984C405.463 636.296 413.977 653.527 414.24 665.183C414.502 676.838 405.039 676.05 399.41 673.283C393.781 670.536 377.337 646.639 376.328 641.952C375.339 637.266 377.498 630.943 379.092 629.711C380.666 628.479 383.813 626.58 383.813 626.58Z" fill="#173D7A"/>
<path d="M381.695 624.236L381.251 634.316C381.15 636.458 382.24 638.498 384.096 639.548C385.791 640.518 388.252 641.245 391.581 640.72C398.905 639.548 399.551 637.447 400.076 627.367C400.6 617.287 381.695 624.236 381.695 624.236Z" fill="#5793CE"/>
<path d="M419.364 607.208C419.364 607.208 429.069 602.299 435.042 609.611C441.014 616.924 449.528 634.155 449.791 645.81C450.053 657.466 440.59 656.678 434.961 653.911C429.332 651.164 412.888 627.267 411.879 622.58C410.89 617.894 413.049 611.571 414.643 610.339C416.237 609.106 419.364 607.208 419.364 607.208Z" fill="#173D7A"/>
<path d="M417.246 604.864L416.802 614.944C416.701 617.085 417.791 619.126 419.647 620.176C421.342 621.146 423.803 621.873 427.132 621.348C434.456 620.176 435.102 618.075 435.627 607.995C436.151 597.915 417.246 604.864 417.246 604.864Z" fill="#5793CE"/>
<path d="M330.567 419.869C333.433 373.024 381.231 426.757 381.231 426.757L413.937 458.856L443.395 491.257C449.145 497.58 451.828 506.125 450.719 514.609L438.794 605.43C438.209 609.914 434.376 613.227 429.856 613.187C428.585 613.187 427.112 613.066 425.438 612.803C414.805 611.147 415.591 601.026 415.591 601.026L417.771 516.084L355.909 478.753C355.909 478.753 327.682 466.714 330.567 419.889V419.869Z" fill="#D4ECFF"/>
<path d="M394.144 500.024L402.941 496.792C403.142 496.792 417.912 511.074 417.77 516.084L411.153 518.205L394.527 502.044L394.144 500.024Z" fill="#5793CE"/>
<path d="M343.037 516.629C343.037 516.629 306.275 495.621 301.876 486.813C300.161 483.359 297.478 479.763 308.192 474.552L357.221 509.539L355.102 521.578L343.037 516.649V516.629Z" fill="#5793CE"/>
<path d="M295.016 437.948C298.083 391.124 345.68 444.837 345.68 444.837L378.386 476.935L407.844 509.337C413.594 515.659 416.277 524.204 415.168 532.688L403.243 623.509C402.658 627.994 398.825 631.307 394.305 631.266C393.034 631.266 391.561 631.145 389.887 630.882C379.254 629.226 380.04 619.106 380.04 619.106L382.219 534.163L320.358 496.833C320.358 496.833 292.212 480.773 295.016 437.969V437.948Z" fill="#D4ECFF"/>
<path d="M323.284 287.375C287.047 302.404 287.773 323.857 287.773 323.857C287.773 323.857 294.875 402.456 292.454 454.957C291.445 476.895 408.913 478.571 391.4 420.031C370.739 350.986 378.487 295.111 368.822 286.688C359.158 278.264 332.666 283.496 323.284 287.375Z" fill="#5793CE"/>
<path d="M311.622 306.383C313.518 313.756 323.163 317.635 333.15 315.049C343.137 312.464 349.715 304.404 347.818 297.051C345.922 289.698 336.277 285.799 326.29 288.385C316.303 290.97 309.725 299.03 311.622 306.383Z" fill="#FFC2B0"/>
<path d="M327.037 317.574C329.155 317.574 331.375 317.312 333.594 316.726C338.779 315.393 343.299 312.625 346.305 308.929C349.433 305.091 350.563 300.707 349.513 296.606C347.395 288.324 336.782 283.88 325.887 286.688C320.701 288.021 316.182 290.789 313.196 294.485C310.068 298.323 308.918 302.707 309.987 306.808C311.682 313.393 318.764 317.574 327.077 317.574H327.037ZM332.484 289.314C339.203 289.314 344.832 292.445 346.144 297.475C346.911 300.485 346.023 303.777 343.602 306.747C341.059 309.858 337.206 312.221 332.726 313.373C323.667 315.696 314.971 312.383 313.317 305.959C312.55 302.949 313.438 299.657 315.859 296.687C318.401 293.576 322.255 291.213 326.734 290.061C328.691 289.556 330.648 289.314 332.504 289.314H332.484Z" fill="white"/>
<path d="M337.811 285.739C337.811 285.739 337.488 287.193 338.134 298.687C338.335 302.303 325.685 305.676 322.436 302.404C319.168 299.131 320.479 295.738 319.692 283.436C318.905 271.134 337.831 285.739 337.831 285.739H337.811Z" fill="#FFC2B0"/>
<path d="M319.672 283.436C319.672 283.436 322.779 294.829 338.134 299.212L337.892 288.849L319.672 283.436Z" fill="#EA9C92"/>
<path d="M309.947 254.468C306.093 269.396 315.052 284.627 329.962 288.486C344.873 292.344 360.086 283.375 363.94 268.447C367.793 253.519 358.835 238.288 343.924 234.43C329.014 230.571 313.801 239.54 309.947 254.468Z" fill="#FFC2B0"/>
<path d="M330.547 262.468C330.547 262.468 345.902 269.053 356.535 269.134C367.168 269.215 364.827 260.286 364.827 260.286L333.271 255.721L330.547 262.468Z" fill="#EA9C92"/>
<path d="M359.702 264.205C359.702 264.205 346.325 258.529 334.603 260.892C331.839 261.458 329.296 262.932 327.521 265.114C326.936 265.821 326.209 266.488 325.382 266.669C323.304 267.134 319.894 258.488 315.859 258.306C311.823 258.104 309.12 260.973 312.429 266.286C315.738 271.598 314.628 277.557 313.095 278.406C311.561 279.254 295.38 266.851 309.665 238.53C323.95 210.209 360.207 225.461 365.836 231.197C365.836 231.197 371.768 236.389 376.61 231.763C376.61 231.763 382.018 272.386 359.723 264.185L359.702 264.205Z" fill="#505050"/>
<path d="M308.111 381.286V402.517C308.111 404.941 309.14 407.264 310.936 408.921L354.517 448.695L349.574 456.27L292.01 414.476C289.327 412.516 287.591 409.527 287.248 406.214L283.354 369.166L308.111 381.266V381.286Z" fill="#FFC2B0"/>
<path d="M290.84 313.231C290.84 313.231 277.624 333.149 272.701 385.549C272.701 385.549 295.279 392.861 308.111 388.72C320.923 384.559 290.86 313.251 290.86 313.251L290.84 313.231Z" fill="#5793CE"/>
<path d="M310.512 338.401C310.512 338.401 315.697 366.136 315.98 379.165C316.06 382.741 313.881 385.973 310.512 387.205V338.401Z" fill="#396CAA"/>
<path d="M321.831 476.309L331.455 475.036L393.64 439.1C395.637 437.948 399.107 438.09 401.408 439.423L445.473 464.876L451.304 464.108V469.905C451.344 470.673 450.901 471.4 449.972 471.946L379.496 512.67C377.498 513.821 374.028 513.68 371.728 512.346L323.748 484.611C322.457 483.864 321.811 482.894 321.851 481.985V476.269L321.831 476.309Z" fill="#173D7A"/>
<path d="M368.54 453.604L372.959 451.059H421.524L445.473 464.896L451.304 464.128V469.926C451.344 470.693 450.901 471.421 449.972 471.966L379.496 512.69C378.447 513.296 376.974 513.538 375.481 513.437L368.56 453.584L368.54 453.604Z" fill="#396CAA"/>
<path d="M448.722 464.451L451.304 464.108V469.906C451.344 470.673 450.901 471.4 449.972 471.946L448.722 472.673V464.451Z" fill="#5793CE"/>
<path d="M378.769 513.033C376.873 513.76 374.169 513.599 372.151 512.629V502.751H378.769V513.033Z" fill="#274F89"/>
<path d="M379.496 506.892L449.972 466.168C451.97 465.017 451.708 462.997 449.407 461.664L401.428 433.929C399.127 432.595 395.637 432.454 393.66 433.605L323.183 474.329C321.185 475.481 321.448 477.501 323.748 478.834L371.728 506.569C374.028 507.902 377.518 508.044 379.496 506.892Z" fill="white"/>
<path d="M380.686 500.711L439.279 466.835C440.933 465.886 440.732 464.209 438.815 463.098L413.11 448.614C411.193 447.503 408.308 447.382 406.633 448.352L348.041 482.228C346.386 483.177 346.588 484.854 348.505 485.965L374.21 500.448C376.126 501.559 379.012 501.681 380.686 500.711Z" fill="#D4ECFF"/>
<path d="M398.683 432.595L399.41 437.464C400.035 441.605 399.914 445.827 399.087 449.948L398.219 454.23C397.735 456.654 395.818 458.533 393.397 458.977C391.501 459.32 389.705 457.987 389.503 456.068L388.333 445.665C388.333 445.665 385.67 449.16 384.398 449.16C383.127 449.16 385.831 438.736 388.736 432.838C391.642 426.939 398.683 432.595 398.683 432.595Z" fill="#FFC2B0"/>
<path d="M374.794 355.228L382.361 370.217C384.156 373.752 385.206 377.63 385.448 381.589L388.736 432.838L398.683 432.595L403.203 375.044C403.344 373.267 403.264 371.489 402.941 369.732L397.776 340.542L374.794 355.228Z" fill="#FFC2B0"/>
<path d="M381.877 510.811L387.788 503.095L449.932 467.077C451.93 465.926 453.544 462.835 453.523 460.169L453.463 409.244L457.034 404.577L453.685 402.638C453.039 402.234 452.192 402.234 451.244 402.78L380.827 443.605C378.83 444.756 377.216 447.847 377.236 450.513L377.296 505.983C377.296 507.478 377.801 508.529 378.608 508.933L381.877 510.831V510.811Z" fill="#173D7A"/>
<path d="M424.852 481.601L429.271 479.036L453.503 436.898V409.223L457.054 404.557L453.705 402.618C453.059 402.214 452.212 402.214 451.264 402.759L380.847 443.584C379.798 444.19 378.85 445.342 378.184 446.695L424.852 481.622V481.601Z" fill="#396CAA"/>
<path d="M455.46 406.618L457.054 404.537L453.705 402.598C453.059 402.194 452.212 402.194 451.264 402.739L450.013 403.466L455.46 406.618Z" fill="#5793CE"/>
<path d="M380.182 444.029C378.628 445.301 377.397 447.725 377.236 449.968L384.116 453.947L387.405 448.21L380.161 444.029H380.182Z" fill="#274F89"/>
<path d="M384.177 445.524L454.593 404.699C456.59 403.547 458.204 404.759 458.204 407.426L458.265 462.896C458.265 465.562 456.651 468.653 454.673 469.804L384.257 510.629C382.26 511.781 380.646 510.569 380.646 507.902L380.585 452.432C380.585 449.766 382.199 446.675 384.177 445.524Z" fill="#5793CE"/>
<path d="M349.554 456.27L350.683 458.613C351.975 461.3 354.033 463.583 356.575 465.138L363.576 469.461C365.755 470.794 368.499 470.915 370.719 469.623C370.799 469.582 370.88 469.522 370.961 469.481C373.18 468.087 373.382 464.896 371.546 463.017L364.242 455.503C364.242 455.503 368.358 458.654 369.508 457.381C370.356 456.452 365.533 451.907 361.821 451.766C358.108 451.624 354.537 448.695 354.537 448.695L349.594 456.27H349.554Z" fill="#FFC2B0"/>
<path d="M368.096 286.567C368.096 286.567 394.89 315.756 405.705 342.542C405.705 342.542 396.545 359.066 374.109 365.55C351.672 372.035 368.096 286.567 368.096 286.567Z" fill="#5793CE"/>
<path d="M379.153 363.813L374.815 321.816L385.044 361.167C383.228 362.116 381.251 363.005 379.153 363.813Z" fill="#396CAA"/>
<path d="M348.02 280.668L355.223 278.689C355.223 278.689 351.793 284.102 346.769 285.476C341.745 286.85 340.979 282.607 340.979 282.607L348.041 280.668H348.02Z" fill="white"/>
<path d="M484.676 216.148C495.793 216.148 504.853 207.098 504.853 195.948C504.853 184.797 495.793 175.747 484.676 175.747C473.559 175.747 464.499 184.797 464.499 195.948C464.499 207.098 473.539 216.148 484.676 216.148ZM484.676 180.171C493.372 180.171 500.434 187.241 500.434 195.948C500.434 204.654 493.372 211.724 484.676 211.724C475.98 211.724 468.918 204.654 468.918 195.948C468.918 187.241 475.98 180.171 484.676 180.171Z" fill="#D4ECFF"/>
<path d="M545.871 620.338L555.576 600.562L535.823 590.845L526.118 610.621L545.871 620.338ZM549.685 602.582L543.854 614.439L532.01 608.601L537.841 596.744L549.685 602.582Z" fill="#5793CE"/>
<path d="M259.324 313.958L269.029 294.182L249.276 284.466L239.571 304.242L259.324 313.958ZM263.138 296.202L257.306 308.06L245.463 302.222L251.294 290.364L263.138 296.202Z" fill="#5793CE"/>
<path d="M572.399 499.78L581.47 504.245L577.01 513.328L567.939 508.863L572.399 499.78Z" fill="#5793CE"/>
<path d="M216.651 206.694L270.603 175.505C271.672 174.879 272.641 174.859 273.387 175.283V175.242L278.613 178.272C278.613 178.272 276.292 179.121 274.941 179.626V218.956C274.941 222.148 273.004 225.865 270.603 227.258L219.031 257.074V261.68L213.745 258.63H213.765C212.878 258.064 212.293 256.872 212.293 255.155V214.997C212.293 211.805 214.229 208.088 216.63 206.694H216.651Z" fill="#D7D7D7"/>
<path d="M221.977 261.518L275.929 230.329C278.33 228.935 280.267 225.218 280.267 222.026V181.868C280.267 178.676 278.33 177.202 275.929 178.575L221.977 209.765C219.576 211.159 217.639 214.876 217.639 218.067V258.226C217.639 261.417 219.576 262.892 221.977 261.518Z" fill="#498BDC"/>
<path d="M257.791 216.492C257.791 218.815 259.425 219.764 261.422 218.592C263.44 217.421 265.054 214.613 265.054 212.29C265.054 209.967 263.42 209.017 261.422 210.189C259.405 211.361 257.791 214.169 257.791 216.492Z" fill="white"/>
<path d="M246.754 222.875C246.754 225.198 248.388 226.147 250.386 224.976C252.383 223.804 254.018 220.996 254.018 218.673C254.018 216.35 252.383 215.401 250.386 216.572C248.368 217.744 246.754 220.552 246.754 222.875Z" fill="white"/>
<path d="M235.717 229.238C235.717 231.561 237.352 232.51 239.349 231.339C241.367 230.167 242.981 227.359 242.981 225.036C242.981 222.713 241.347 221.764 239.349 222.936C237.332 224.107 235.717 226.915 235.717 229.238Z" fill="white"/>
<path d="M589.594 548.384L642.517 517.801C643.566 517.195 644.515 517.174 645.261 517.578V517.538L650.386 520.507C650.386 520.507 648.106 521.336 646.774 521.82V560.403C646.774 563.534 644.878 567.19 642.517 568.544L591.935 597.794V602.319L586.749 599.329H586.769C585.902 598.784 585.337 597.612 585.337 595.915V556.525C585.337 553.394 587.233 549.737 589.594 548.384Z" fill="#5793CE"/>
<path d="M594.82 602.178L647.743 571.594C650.103 570.241 652 566.585 652 563.453V524.063C652 520.932 650.103 519.477 647.743 520.831L594.82 551.414C592.459 552.767 590.562 556.424 590.562 559.555V598.946C590.562 602.077 592.459 603.531 594.82 602.178Z" fill="#D4ECFF"/>
<path d="M629.947 557.999C629.947 560.282 631.541 561.211 633.518 560.06C635.496 558.929 637.09 556.141 637.09 553.858C637.09 551.576 635.496 550.646 633.518 551.798C631.541 552.929 629.947 555.717 629.947 557.999Z" fill="white"/>
<path d="M619.132 564.261C619.132 566.544 620.726 567.473 622.704 566.322C624.681 565.191 626.275 562.403 626.275 560.12C626.275 557.838 624.681 556.908 622.704 558.06C620.726 559.191 619.132 561.979 619.132 564.261Z" fill="white"/>
<path d="M608.298 570.503C608.298 572.786 609.892 573.715 611.869 572.564C613.846 571.433 615.44 568.645 615.44 566.362C615.44 564.08 613.846 563.15 611.869 564.302C609.892 565.433 608.298 568.221 608.298 570.503Z" fill="white"/>
</g>
</g>
<defs>
<filter id="filter0_i_988_1460" x="-714.136" y="-25.7475" width="1331.27" height="1281.45" filterUnits="userSpaceOnUse" color-interpolation-filters="sRGB">
<feFlood flood-opacity="0" result="BackgroundImageFix"/>
<feBlend mode="normal" in="SourceGraphic" in2="BackgroundImageFix" result="shape"/>
<feColorMatrix in="SourceAlpha" type="matrix" values="0 0 0 0 0 0 0 0 0 0 0 0 0 0 0 0 0 0 127 0" result="hardAlpha"/>
<feOffset dy="2"/>
<feGaussianBlur stdDeviation="11.5"/>
<feComposite in2="hardAlpha" operator="arithmetic" k2="-1" k3="1"/>
<feColorMatrix type="matrix" values="0 0 0 0 0 0 0 0 0 0 0 0 0 0 0 0 0 0 0.25 0"/>
<feBlend mode="normal" in2="shape" result="effect1_innerShadow_988_1460"/>
</filter>
<clipPath id="clip0_988_1460">
<rect width="1440" height="850" fill="white"/>
</clipPath>
<clipPath id="clip1_988_1460">
<rect width="592" height="500" fill="white" transform="matrix(-1 0 0 1 652 175)"/>
</clipPath>
</defs>
</svg>
