<svg xmlns="http://www.w3.org/2000/svg" width="30" height="30" viewBox="0 0 30 30">
    <g fill="none">
        <path fill="#66B9EA" d="M1.634 5.56L1.634 9.846 28.25 9.846 28.25 5.56 14.942 1.696z"/>
        <path fill="#FFF" d="M3.713 28.268H5.75V15.416c0-.456.372-.833.834-.833h7.112c.457 0 .834.372.834.833v12.852h11.641v-16.76H3.712v16.76zm12.48-12.852c0-.456.371-.833.832-.833h6.86c.457 0 .834.372.834.833v6.86c0 .456-.372.833-.834.833h-6.864c-.457 0-.834-.372-.834-.833v-6.86h.005z"/>
        <g fill="#EDD36D">
            <path d="M.052.06H5.497999999999999V12.078000000000001H.052zM10.488.06H15.686V5.258H10.488z" transform="translate(7.366 16.19)"/>
        </g>
        <g fill="#3A6FB0">
            <path d="M29.331 4.147L15.191.03c-.17-.04-.333-.04-.457 0L.598 4.147c-.377.084-.586.416-.586.793v5.779c0 .456.372.833.834.833h1.25V29.14c0 .457.372.834.833.834h24.116c.456 0 .833-.372.833-.834V11.507h1.25c.457 0 .834-.372.834-.833V4.94c-.05-.377-.298-.71-.63-.793zm-16.467 24.12H7.418V16.25h5.446v12.019zm13.308 0H14.526V15.417c0-.456-.372-.833-.834-.833H6.585c-.457 0-.834.372-.834.833v12.852H3.713v-16.76h22.454v16.76h.005zM28.25 9.847H1.634V5.56l13.308-3.869 13.308 3.87v4.285z"/>
            <path d="M17.02 23.11h6.86c.457 0 .834-.373.834-.834v-6.86c0-.456-.372-.833-.834-.833h-6.86c-.456 0-.833.372-.833.833v6.86c.005.461.377.833.834.833zm.834-6.86h5.198v5.197h-5.198V16.25z"/>
        </g>
    </g>
</svg>