<svg xmlns="http://www.w3.org/2000/svg" width="189" height="40" viewBox="0 0 189 40">
    <g fill="none" fill-rule="evenodd">
        <g>
            <g>
                <g>
                    <g fill="#CFCFD4">
                        <path fill-rule="nonzero" d="M7.521 3.004C3.435 2.936.07 6.227.001 10.355v.185c-.072 4.046 3.117 7.386 7.123 7.459.118.002.236.001.355-.003 1.506.01 2.981-.439 4.231-1.288l.895.818c.522.537 1.375.544 1.906.016.257-.255.403-.604.403-.968.003-.428-.189-.833-.52-1.1l-.755-.647c.891-1.277 1.367-2.804 1.36-4.367.072-4.046-3.117-7.386-7.123-7.459C7.758 3 7.64 3 7.521 3.004zm3.893 10.137c-.305.532-.717.994-1.209 1.356-2.1 1.469-4.98.94-6.434-1.182-.565-.824-.852-1.81-.82-2.812 0-2.779 1.959-4.886 4.558-4.886 2.547.004 4.61 2.093 4.606 4.667 0 .073-.002.146-.006.22.002.925-.238 1.835-.695 2.637z" transform="translate(-36 -830) translate(0 50) translate(36 780) translate(52 11)"/>
                        <path d="M25.588 6c-.773-.007-1.405.644-1.412 1.453V12.688c0 1.595-.86 2.572-2.253 2.572-1.393 0-2.124-.907-2.124-2.572V7.505c0-.81-.626-1.466-1.4-1.466-.772 0-1.399.656-1.399 1.466v5.993C17 16.276 18.529 18 20.99 18c1.248.022 2.43-.58 3.186-1.62v.039c0 .816.632 1.479 1.412 1.479.78 0 1.412-.663 1.412-1.48V7.506c.01-.82-.617-1.494-1.4-1.505h-.012z" transform="translate(-36 -830) translate(0 50) translate(36 780) translate(52 11)"/>
                        <path fill-rule="nonzero" d="M34.578 6c-3.156 0-5.574 2.551-5.574 6.034-.123 3.168 2.319 5.837 5.454 5.962.128.005.257.005.385.002 1.511.042 2.98-.506 4.103-1.531.243-.238.382-.564.385-.906 0-.659-.529-1.193-1.18-1.193-.278-.008-.549.09-.758.275-.7.612-1.599.943-2.525.93-1.456.037-2.713-1.025-2.935-2.48h6.697c.753.003 1.366-.61 1.37-1.371v-.033C40 8.921 38.1 6 34.578 6zm-2.689 5.033c.278-1.582 1.307-2.59 2.664-2.59 1.647 0 2.417 1.276 2.606 2.59h-5.27z" transform="translate(-36 -830) translate(0 50) translate(36 780) translate(52 11)"/>
                        <path d="M49.588 6c-.773-.007-1.405.644-1.412 1.453V12.688c0 1.595-.86 2.572-2.247 2.572s-2.13-.907-2.13-2.572V7.505c0-.81-.626-1.466-1.4-1.466-.772 0-1.399.656-1.399 1.466v5.993C41 16.276 42.529 18 44.99 18c1.248.022 2.43-.58 3.186-1.62v.039c0 .816.632 1.479 1.412 1.479.78 0 1.412-.663 1.412-1.48V7.506c.01-.82-.617-1.494-1.4-1.505h-.012z" transform="translate(-36 -830) translate(0 50) translate(36 780) translate(52 11)"/>
                        <path fill-rule="nonzero" d="M58.572 6c-3.156 0-5.568 2.551-5.568 6.034-.123 3.168 2.319 5.837 5.454 5.962.128.005.257.005.385.002 1.511.042 2.98-.506 4.103-1.531.243-.238.382-.564.385-.906 0-.659-.529-1.193-1.18-1.193-.278-.008-.549.09-.758.275-.702.608-1.6.94-2.525.93-1.463.047-2.731-1.018-2.954-2.48h6.716c.753.003 1.366-.61 1.37-1.371v-.033C64 8.921 62.094 6 58.572 6zm-2.683 5.033c.278-1.582 1.307-2.59 2.664-2.59 1.647 0 2.417 1.276 2.606 2.59h-5.27zM75.445 10.152c1.14-.647 1.828-1.914 1.776-3.267.018-.948-.34-1.862-.99-2.524-1.039-.957-2.4-1.442-3.781-1.35h-5.043c-.77-.007-1.4.64-1.407 1.445v12.068c-.01.805.606 1.465 1.377 1.476h5.272C76.001 18 78 16.43 78 13.767c0-1.747-.815-2.92-2.555-3.615zm-6.679-4.535h3.376c1.455 0 2.295.63 2.295 1.728 0 1.577-1.552 1.81-2.476 1.81h-3.195V5.618zm3.913 9.727h-3.913V11.68h3.732c1.244 0 2.718.309 2.718 1.836 0 1.526-1.619 1.83-2.549 1.83h.012z" transform="translate(-36 -830) translate(0 50) translate(36 780) translate(52 11)"/>
                        <path d="M87.594 6c-.773-.007-1.405.644-1.412 1.453V12.688c0 1.595-.865 2.572-2.253 2.572-1.387 0-2.13-.907-2.13-2.572V7.505c0-.81-.626-1.466-1.4-1.466-.772 0-1.399.656-1.399 1.466v5.993C79 16.276 80.529 18 82.996 18c1.248.022 2.43-.58 3.186-1.62v.039c.052.815.724 1.432 1.502 1.378.706-.049 1.27-.638 1.316-1.378V7.505c.013-.817-.608-1.49-1.387-1.505h-.019zM96.523 10.803l-.211-.071c-1.138-.379-2.12-.706-2.12-1.4 0-.565.534-.93 1.355-.93.873.047 1.725.302 2.487.744.176.1.373.15.573.148.649.014 1.186-.518 1.2-1.188v-.032c-.01-.49-.29-.93-.721-1.137-1.079-.596-2.279-.917-3.502-.937-2.382 0-4.049 1.483-4.049 3.647 0 2.164 1.823 2.973 3.52 3.473l.262.077c1.1.347 2.052.642 2.052 1.368 0 .726-.566 1.034-1.517 1.034-1.095-.038-2.154-.406-3.048-1.06-.19-.11-.404-.17-.622-.173-.645-.007-1.174.527-1.181 1.194v.026c-.014.423.195.821.547 1.04 1.251.881 2.727 1.36 4.241 1.374 2.6 0 4.21-1.425 4.21-3.756.026-2.035-1.66-2.857-3.476-3.441zM105.816 8.774c.654 0 1.184-.576 1.184-1.286 0-.71-.53-1.286-1.184-1.286h-1.7V4.466c0-.81-.605-1.466-1.35-1.466-.746 0-1.35.656-1.35 1.466v1.736h-.232c-.654 0-1.184.576-1.184 1.286 0 .71.53 1.286 1.184 1.286h.231v5.747c0 2.309 1.06 3.479 3.145 3.479.577.006 1.15-.099 1.694-.309.591-.24.892-.954.671-1.596-.187-.545-.697-.876-1.228-.796h-.035c-.143.028-.288.044-.433.045-.77 0-1.113-.379-1.113-1.228V8.774h1.7z" transform="translate(-36 -830) translate(0 50) translate(36 780) translate(52 11)"/>
                        <path fill-rule="nonzero" d="M113.572 6c-3.156 0-5.568 2.551-5.568 6.034-.123 3.168 2.319 5.837 5.454 5.962.128.005.257.005.385.002 1.511.042 2.98-.506 4.103-1.531.243-.238.382-.564.385-.906.01-.659-.51-1.201-1.162-1.212h-.019c-.277-.008-.548.09-.757.275-.702.608-1.6.94-2.525.93-1.457.048-2.723-1.006-2.954-2.461h6.716c.753.003 1.366-.61 1.37-1.371v-.033C119 8.921 117.094 6 113.572 6zm-2.683 5.033c.278-1.582 1.307-2.59 2.664-2.59 1.647 0 2.417 1.276 2.606 2.59h-5.27z" transform="translate(-36 -830) translate(0 50) translate(36 780) translate(52 11)"/>
                        <path d="M126.555 6.002c-.977 0-1.96.735-2.643 1.95V7.55c0-.818-.652-1.482-1.456-1.482-.804 0-1.456.664-1.456 1.482v8.982c-.01.8.618 1.458 1.404 1.469h.046c.801.003 1.455-.653 1.462-1.469v-3.38c0-2.417 1.04-3.9 2.924-4.263.686-.105 1.186-.717 1.162-1.423.04-.767-.538-1.422-1.292-1.463-.05-.003-.1-.003-.151 0zM129.272.415h-1.073c-.108 0-.196-.09-.199-.205.003-.115.09-.207.199-.21h2.602c.109.003.196.095.199.21-.003.114-.091.205-.199.205h-1.073v3.358c0 .125-.096.227-.215.227-.118 0-.214-.102-.214-.227l-.027-3.358zM133 .219c.003-.12.106-.216.233-.219h.054c.09 0 .175.045.221.118l1.489 2.125 1.495-2.108c.045-.074.13-.12.221-.118h.054c.127.003.23.099.233.219V3.74c0 .121-.103.221-.233.224-.13-.003-.236-.102-.24-.224V.819l-1.32 1.845c-.04.067-.116.11-.198.112-.084-.001-.161-.044-.203-.112l-1.328-1.84v2.922c.02.12-.066.232-.193.251-.127.02-.247-.062-.267-.18-.004-.024-.004-.048 0-.07L133 .218z" transform="translate(-36 -830) translate(0 50) translate(36 780) translate(52 11)"/>
                    </g>
                    <g>
                        <path fill="#CFCFD4" d="M8.533 40C3.821 40 0 36.18 0 31.467V8.533C0 3.821 3.82 0 8.533 0h22.934C36.179 0 40 3.82 40 8.533v22.934C40 36.179 36.18 40 31.467 40H8.533z" transform="translate(-36 -830) translate(0 50) translate(36 780)"/>
                        <path fill="#FFF" fill-rule="nonzero" d="M27.006 28c-3.853 0-6.99-3.36-6.994-7.49l-.01-6.354c-.03-.608.425-1.125 1.015-1.155.59-.03 1.093.439 1.122 1.047.002.036.002.072 0 .108l.013.793.13.054c1.266-1.276 2.966-1.992 4.737-1.997C30.87 13.013 34 16.38 34 20.51c0 4.132-3.14 7.49-6.994 7.49zm.01-2.283c2.682 0 4.863-2.343 4.863-5.216s-2.18-5.207-4.863-5.207c-2.683 0-4.863 2.337-4.863 5.216 0 2.88 2.18 5.206 4.86 5.208l.003-.001zM11.994 27.98C8.137 27.98 5 24.622 5 20.497 5 16.373 8.137 13 11.994 13c2.773 0 5.286 1.76 6.399 4.48 1.115 2.72.626 5.856-1.26 8.08l.055.134.735.012c.615.021 1.097.553 1.076 1.186-.02.603-.49 1.087-1.076 1.108l-5.929-.02zm0-12.694c-2.672 0-4.851 2.339-4.856 5.198-.025 2.076 1.154 3.967 2.998 4.81.588.264 1.222.4 1.864.401 1.302-.001 2.546-.553 3.44-1.526 1.4-1.516 1.81-3.732 1.053-5.672-.756-1.95-2.52-3.207-4.492-3.207l-.007-.004z" transform="translate(-36 -830) translate(0 50) translate(36 780)"/>
                    </g>
                </g>
            </g>
        </g>
    </g>
</svg>
