<svg xmlns="http://www.w3.org/2000/svg" width="30" height="30" viewBox="0 0 30 30">
    <g fill="none">
        <g fill="#FFF">
            <path d="M19.128 23.287c-2.072 1.658-4.639 2.561-7.318 2.561-6.485 0-11.75-5.275-11.75-11.75 0-6.736 5.364-11.256 10.92-11.72v12.05c0 .213.085.42.233.573l7.915 8.286zM25.183 7.663l-10.185 3.272V.029c4.565.326 8.586 3.34 10.185 7.634z" transform="translate(1.603 2.061)"/>
        </g>
        <path fill="#66B9EA" d="M28.296 16.164c.005 2.99-1.154 5.887-3.202 8.059l-7.028-7.343 9.964-3.203c.178.82.266 1.653.266 2.487z"/>
        <path fill="#EDD36D" d="M10.916 17.492V6.383c-2.59.662-4.772 2.33-6.124 4.56h3.153c.459 0 .834.37.834.834 0 .459-.37.834-.834.834H3.982c-.212.563-.38 1.14-.483 1.742h2.359c.459 0 .834.37.834.834 0 .464-.37.834-.834.834H3.33c0 .05-.005.099-.005.148 0 5.562 4.525 10.087 10.087 10.087 1.668 0 3.291-.415 4.742-1.18l-7.24-7.584z"/>
        <g fill="#3A6FB0">
            <path d="M16.018 14.549l12.076-3.884c.43-.133.671-.597.543-1.026-1.668-5.67-6.958-9.633-12.87-9.633-.46 0-.834.37-.834.834v12.914c0 .627.646.967 1.085.795zm.583-12.84c4.565.325 8.586 3.34 10.185 7.633l-10.185 3.272V1.708zM29.422 11.988c-.148-.489-.607-.686-1.057-.563L16.29 15.309c-.563.172-.785.848-.35 1.367l8.527 8.917c.36.33.824.35 1.17.034 2.748-2.536 4.322-6.129 4.322-9.864.005-1.269-.177-2.542-.537-3.775zM25.094 23.84l-7.028-7.343 9.964-3.203c.177.82.266 1.653.266 2.487.005 2.991-1.154 5.888-3.202 8.06z" transform="translate(0 .382)"/>
            <path d="M22.542 24.453l-8.295-8.676V3.194c0-.46-.37-.834-.834-.834C6.016 2.365 0 8.38 0 15.777 0 23.175 6.016 29.19 13.413 29.19c3.38 0 6.608-1.263 9.09-3.553.38-.335.335-.883.04-1.184zm-9.13 3.074c-6.483 0-11.749-5.275-11.749-11.75 0-6.735 5.364-11.256 10.92-11.72v12.051c0 .212.085.42.233.573l7.915 8.285c-2.072 1.658-4.638 2.561-7.318 2.561z" transform="translate(0 .382)"/>
        </g>
    </g>
</svg>