<svg xmlns="http://www.w3.org/2000/svg" width="32" height="32" viewBox="0 0 32 32">
    <g fill="none" fill-rule="evenodd">
        <g fill="#FFF">
            <g>
                <g>
                    <path d="M16 2C8.268 2 2 8.268 2 16s6.268 14 14 14 14-6.268 14-14c0-3.713-1.475-7.274-4.1-9.9C23.273 3.476 19.712 2 16 2zm0 5c2.485 0 4.5 2.015 4.5 4.5S18.485 16 16 16s-4.5-2.015-4.5-4.5c-.003-1.194.47-2.34 1.315-3.185C13.66 7.471 14.805 6.997 16 7zm8 17.92c-4.543 4.106-11.457 4.106-16 0v-.58c-.079-2.85 2.151-5.231 5-5.34h6c2.834.114 5.057 2.474 5 5.31v.61z" transform="translate(-1388 -9) translate(1288 9) translate(100)"/>
                </g>
            </g>
        </g>
    </g>
</svg>
